HIERARCHY
ROOT Hips
{
 OFFSET 0.000000 0.000000 0.000000
 CHANNELS 6 Xposition Yposition Zposition Yrotation Xrotation Zrotation
 JOINT Chest
 {
  OFFSET 0.000000 9.588913 -0.003946
  CHANNELS 3 Yrotation Xrotation Zrotation
  JOINT Chest2
  {
   OFFSET 0.000000 9.541882 0.008053
   CHANNELS 3 Yrotation Xrotation Zrotation
   JOINT Chest3
   {
    OFFSET 0.000000 9.501360 0.000000
    CHANNELS 3 Yrotation Xrotation Zrotation
    JOINT Chest4
    {
     OFFSET 0.000000 9.491660 0.000000
     CHANNELS 3 Yrotation Xrotation Zrotation
     JOINT Neck
     {
      OFFSET 0.000000 14.331917 0.000000
      CHANNELS 3 Yrotation Xrotation Zrotation
      JOINT Head
      {
       OFFSET 0.000000 8.884799 0.017034
       CHANNELS 3 Yrotation Xrotation Zrotation
       End Site
       {
        OFFSET 0.000000 16.896195 0.008993
       }
      }
     }
     JOINT RightCollar
     {
      OFFSET -2.923010 9.499495 0.000000
      CHANNELS 3 Yrotation Xrotation Zrotation
      JOINT RightShoulder
      {
       OFFSET -13.795216 0.000000 0.000000
       CHANNELS 3 Yrotation Xrotation Zrotation
       JOINT RightElbow
       {
        OFFSET -30.272209 0.000000 0.000000
        CHANNELS 3 Yrotation Xrotation Zrotation
        JOINT RightWrist
        {
         OFFSET -24.478199 0.000000 0.000000
         CHANNELS 3 Yrotation Xrotation Zrotation
         End Site
         {
          OFFSET -18.090752 0.000000 0.000000
         }
        }
       }
      }
     }
     JOINT LeftCollar
     {
      OFFSET 2.923010 9.499495 0.000000
      CHANNELS 3 Yrotation Xrotation Zrotation
      JOINT LeftShoulder
      {
       OFFSET 13.795216 0.000000 0.000000
       CHANNELS 3 Yrotation Xrotation Zrotation
       JOINT LeftElbow
       {
        OFFSET 30.272209 0.000000 0.000000
        CHANNELS 3 Yrotation Xrotation Zrotation
        JOINT LeftWrist
        {
         OFFSET 24.478199 0.000000 0.000000
         CHANNELS 3 Yrotation Xrotation Zrotation
         End Site
         {
          OFFSET 18.090752 0.000000 0.000000
         }
        }
       }
      }
     }
    }
   }
  }
 }
 JOINT RightHip
 {
  OFFSET -7.826875 0.019532 0.001973
  CHANNELS 3 Yrotation Xrotation Zrotation
  JOINT RightKnee
  {
   OFFSET 0.000000 -40.546152 -0.001885
   CHANNELS 3 Yrotation Xrotation Zrotation
   JOINT RightAnkle
   {
    OFFSET 0.000000 -39.417092 -0.003189
    CHANNELS 3 Yrotation Xrotation Zrotation
    JOINT RightToe
    {
     OFFSET 0.000000 -7.579396 17.243563
     CHANNELS 3 Yrotation Xrotation Zrotation
     End Site
     {
      OFFSET 0.000000 -1.500329 6.694466
     }
    }
   }
  }
 }
 JOINT LeftHip
 {
  OFFSET 7.826875 0.019532 0.001973
  CHANNELS 3 Yrotation Xrotation Zrotation
  JOINT LeftKnee
  {
   OFFSET 0.000000 -40.546152 -0.001885
   CHANNELS 3 Yrotation Xrotation Zrotation
   JOINT LeftAnkle
   {
    OFFSET 0.000000 -39.417092 -0.003189
    CHANNELS 3 Yrotation Xrotation Zrotation
    JOINT LeftToe
    {
     OFFSET 0.000000 -7.579396 17.243563
     CHANNELS 3 Yrotation Xrotation Zrotation
     End Site
     {
      OFFSET 0.000000 -1.500329 6.694466
     }
    }
   }
  }
 }
}
MOTION
Frames: 15
Frame Time: 0.008333
-2.920220 86.972235 -13.471003 -141.398250 -9.310592 -5.838091 0.943748 -1.794184 1.901615 0.635000 -1.035333 0.680507 0.791857 -1.295334 0.848872 0.635000 -1.035333 0.680507 1.492862 21.071573 11.685613 -1.052616 -2.579408 12.707778 9.739071 -3.853550 4.481528 -2.237325 -29.039398 85.706727 77.059649 -38.995520 56.999204 8.807179 -12.451774 4.989130 -14.256664 -2.733970 -3.721699 2.516934 -11.334933 -86.671988 -13.297443 -7.818423 -80.368703 -7.112871 -12.455410 -12.116560 3.416904 13.295476 10.676362 0.020582 1.002708 0.811908 1.749067 -7.171009 -4.905762 0.040753 0.978223 0.019720 9.401841 -3.995591 10.393969 -3.492085 35.044404 0.476958 -1.842350 -21.860936 -3.139728 -0.062672 -0.581726 -0.064591
-2.926549 86.972106 -13.477716 -141.389795 -9.307814 -5.827457 0.938558 -1.793822 1.892069 0.632540 -1.035173 0.674270 0.788801 -1.295119 0.841083 0.632540 -1.035173 0.674270 1.543917 21.076251 11.578146 -0.971078 -2.588106 12.566236 9.762024 -3.865861 4.473311 -2.234692 -29.035280 85.698305 77.059384 -38.983776 56.994472 8.801387 -12.448161 4.994624 -14.238686 -2.737970 -3.728506 2.510256 -11.342873 -86.657911 -13.303462 -7.815404 -80.367720 -7.103892 -12.452003 -12.122301 3.407294 13.298534 10.664570 0.015662 1.007161 0.811675 1.752249 -7.178139 -4.907804 0.039324 0.978893 0.020701 9.366084 -3.962315 10.366351 -3.493777 35.008917 0.490927 -1.795057 -21.872357 -3.146506 -0.060401 -0.578127 -0.067793
-2.933543 86.972110 -13.483787 -141.384219 -9.304171 -5.812154 0.936543 -1.793896 1.879001 0.631727 -1.035420 0.667082 0.787803 -1.295414 0.832099 0.631727 -1.035420 0.667082 1.594032 21.081175 11.462759 -0.888872 -2.597244 12.415714 9.777664 -3.879398 4.466918 -2.223995 -29.028763 85.686912 77.055689 -38.974481 56.995073 8.799064 -12.446951 4.994142 -14.223842 -2.744183 -3.733681 2.504159 -11.348535 -86.645023 -13.311139 -7.811605 -80.366745 -7.091547 -12.449780 -12.128642 3.402013 13.300418 10.649173 0.010411 1.011042 0.809464 1.753753 -7.186382 -4.908057 0.037829 0.981350 0.021344 9.336913 -3.927435 10.340043 -3.496557 34.967069 0.504639 -1.782226 -21.882690 -3.144157 -0.060878 -0.574485 -0.070992
-2.940922 86.972380 -13.489295 -141.380161 -9.298848 -5.794369 0.936491 -1.793817 1.864268 0.631667 -1.035791 0.658964 0.787751 -1.295864 0.821951 0.631667 -1.035791 0.658964 1.642637 21.084385 11.340072 -0.806800 -2.609021 12.257116 9.788526 -3.895615 4.464806 -2.206381 -29.021215 85.670690 77.043371 -38.969760 57.002202 8.795861 -12.445610 4.993012 -14.211203 -2.753913 -3.735941 2.498737 -11.353188 -86.634760 -13.319255 -7.809736 -80.364664 -7.076061 -12.448632 -12.133432 3.398529 13.300350 10.631897 0.007863 1.014704 0.805103 1.752579 -7.194618 -4.906486 0.036341 0.984222 0.021721 9.316447 -3.894613 10.307290 -3.495190 34.924121 0.522823 -1.762264 -21.891213 -3.146214 -0.060326 -0.570971 -0.070872
-2.948990 86.973079 -13.494547 -141.373604 -9.294200 -5.774860 0.936491 -1.793782 1.848063 0.631580 -1.036295 0.649802 0.787668 -1.296478 0.810497 0.631580 -1.036295 0.649802 1.688669 21.085842 11.211239 -0.726308 -2.623301 12.092119 9.800714 -3.910744 4.467069 -2.189113 -29.013955 85.651313 77.024559 -38.966039 57.012140 8.792420 -12.443943 4.993344 -14.199885 -2.762553 -3.735902 2.493479 -11.359119 -86.627565 -13.325692 -7.809155 -80.361103 -7.061712 -12.446628 -12.136850 3.392115 13.301256 10.612215 0.006817 1.019352 0.799665 1.750860 -7.202953 -4.903689 0.035000 0.986459 0.021923 9.300178 -3.860848 10.267765 -3.491289 34.879831 0.544342 -1.727921 -21.897568 -3.155037 -0.058045 -0.567278 -0.067150
-2.957840 86.974249 -13.499370 -141.363771 -9.290068 -5.753067 0.937108 -1.794504 1.829419 0.632101 -1.037254 0.639711 0.788345 -1.297660 0.797880 0.632101 -1.037254 0.639711 1.730962 21.085568 11.078165 -0.649123 -2.639790 11.923311 9.811828 -3.924348 4.468784 -2.177448 -29.005372 85.633821 77.003465 -38.961561 57.024609 8.788849 -12.442934 4.991477 -14.190292 -2.767541 -3.734702 2.486572 -11.368885 -86.621806 -13.329148 -7.808027 -80.357597 -7.050363 -12.444162 -12.143278 3.381998 13.304663 10.588812 0.004933 1.021917 0.794312 1.750690 -7.209988 -4.900383 0.033970 0.988257 0.022208 9.284816 -3.825338 10.230382 -3.491234 34.831456 0.563262 -1.716685 -21.901618 -3.159148 -0.057385 -0.564200 -0.062748
-2.967075 86.975863 -13.503360 -141.353204 -9.283882 -5.729326 0.939987 -1.796408 1.809187 0.634026 -1.038774 0.629117 0.790779 -1.299545 0.784630 0.634026 -1.038774 0.629117 1.770640 21.083428 10.941592 -0.574159 -2.658586 11.751320 9.818128 -3.938234 4.465110 -2.172170 -28.994567 85.621320 76.983999 -38.955630 57.035393 8.782108 -12.442879 4.989488 -14.183620 -2.770906 -3.734856 2.477308 -11.382352 -86.615921 -13.330079 -7.805992 -80.355724 -7.042960 -12.441262 -12.149399 3.367367 13.308210 10.561637 0.002694 1.021351 0.789270 1.753424 -7.214710 -4.896236 0.032898 0.989826 0.022126 9.270002 -3.791663 10.194958 -3.493246 34.780981 0.577995 -1.722574 -21.903136 -3.157055 -0.058175 -0.562188 -0.059450
-2.976577 86.977943 -13.506400 -141.342565 -9.275472 -5.703984 0.944655 -1.798746 1.787789 0.637012 -1.040396 0.618099 0.794541 -1.301559 0.770844 0.637012 -1.040396 0.618099 1.809701 21.079362 10.801312 -0.499144 -2.679813 11.575428 9.822737 -3.951902 4.456248 -2.173127 -28.983473 85.613535 76.970873 -38.946260 57.038920 8.775385 -12.442443 4.989110 -14.181625 -2.774555 -3.737472 2.470289 -11.397839 -86.608687 -13.327935 -7.803377 -80.357710 -7.038816 -12.437673 -12.149732 3.345405 13.310459 10.531152 0.003018 1.020874 0.782879 1.758817 -7.218498 -4.889576 0.030927 0.991208 0.020979 9.253371 -3.759922 10.157434 -3.492938 34.729935 0.588630 -1.721740 -21.901980 -3.153485 -0.058525 -0.560507 -0.056798
-2.986197 86.980586 -13.508790 -141.332114 -9.266575 -5.679065 0.950141 -1.799973 1.765148 0.640323 -1.041393 0.606936 0.798710 -1.302792 0.756880 0.640323 -1.041393 0.606936 1.849111 21.073238 10.657327 -0.423013 -2.703634 11.395424 9.829364 -3.964805 4.444534 -2.175760 -28.976574 85.608769 76.964462 -38.935483 57.035023 8.770636 -12.440213 4.990670 -14.179753 -2.780205 -3.739995 2.467156 -11.413675 -86.602321 -13.322941 -7.799669 -80.362475 -7.033249 -12.432678 -12.148958 3.319338 13.312764 10.500069 0.006306 1.019942 0.775837 1.764190 -7.220099 -4.881371 0.028223 0.991463 0.019216 9.233024 -3.728022 10.122208 -3.490421 34.677671 0.594007 -1.719011 -21.898876 -3.149314 -0.058250 -0.558472 -0.053456
-2.995878 86.983890 -13.510903 -141.322532 -9.259623 -5.656320 0.956395 -1.799687 1.741070 0.643770 -1.041570 0.595519 0.803052 -1.302999 0.742597 0.643770 -1.041570 0.595519 1.889773 21.066650 10.510684 -0.344986 -2.728060 11.212374 9.838860 -3.977495 4.434722 -2.177697 -28.973981 85.603883 76.959851 -38.925737 57.029207 8.766954 -12.436987 4.993922 -14.175109 -2.786344 -3.738265 2.465731 -11.426384 -86.599724 -13.319683 -7.795525 -80.368101 -7.028771 -12.425864 -12.150627 3.294181 13.317454 10.470337 0.009571 1.017054 0.770760 1.769295 -7.217906 -4.874337 0.025774 0.989660 0.017849 9.210144 -3.693483 10.090721 -3.482702 34.623927 0.596710 -1.712352 -21.894439 -3.147174 -0.056966 -0.555400 -0.048745
-3.005793 86.987818 -13.512526 -141.313281 -9.254860 -5.634349 0.963190 -1.798325 1.715636 0.647274 -1.041062 0.583712 0.807466 -1.302348 0.727829 0.647274 -1.041062 0.583712 1.932053 21.060312 10.361542 -0.264695 -2.752229 11.026415 9.852031 -3.992348 4.428313 -2.181989 -28.971536 85.595067 76.953845 -38.916920 57.026070 8.766611 -12.434510 4.995924 -14.169647 -2.791467 -3.734406 2.467014 -11.434244 -86.597327 -13.322860 -7.793888 -80.376274 -7.027448 -12.420733 -12.151305 3.272478 13.322678 10.440558 0.010986 1.015675 0.768279 1.773808 -7.214777 -4.868562 0.024136 0.986530 0.016846 9.190905 -3.656345 10.061289 -3.470036 34.567309 0.599487 -1.706744 -21.888410 -3.145862 -0.055178 -0.551010 -0.043425
-3.015863 86.992256 -13.513270 -141.303135 -9.250474 -5.612303 0.970570 -1.796495 1.689249 0.650844 -1.040251 0.571857 0.811963 -1.301320 0.713001 0.650844 -1.040251 0.571857 1.974318 21.053819 10.209952 -0.183963 -2.776565 10.838007 9.866708 -4.009853 4.422499 -2.184873 -28.967977 85.582898 76.949492 -38.907454 57.021287 8.769082 -12.433678 4.995814 -14.164760 -2.796430 -3.733718 2.468493 -11.438921 -86.591824 -13.330677 -7.798070 -80.386278 -7.026671 -12.419147 -12.148531 3.256323 13.324733 10.410813 0.011901 1.018527 0.766757 1.773913 -7.213113 -4.861864 0.023100 0.982751 0.015352 9.180297 -3.619580 10.033643 -3.457343 34.507458 0.602829 -1.710765 -21.880550 -3.142621 -0.053890 -0.545626 -0.038482
-3.026098 86.997100 -13.513008 -141.291642 -9.246100 -5.589644 0.978884 -1.794872 1.661395 0.654835 -1.039524 0.559525 0.816989 -1.300396 0.697575 0.654836 -1.039525 0.559525 2.014479 21.048302 10.057175 -0.105370 -2.799565 10.649164 9.880206 -4.029961 4.418290 -2.182374 -28.963735 85.567237 76.944559 -38.901656 57.013376 8.771151 -12.431052 4.994161 -14.158922 -2.800143 -3.734809 2.463547 -11.442014 -86.585917 -13.337468 -7.808488 -80.396097 -7.026743 -12.418082 -12.142414 3.245804 13.323712 10.381653 0.012063 1.024693 0.764504 1.768838 -7.213043 -4.854712 0.022635 0.978787 0.014463 9.175186 -3.583270 10.008131 -3.448202 34.444553 0.605086 -1.727963 -21.870676 -3.135620 -0.054453 -0.540035 -0.034839
-3.036317 87.002211 -13.511640 -141.280793 -9.240732 -5.566196 0.988297 -1.793996 1.632918 0.659529 -1.039080 0.546498 0.822894 -1.299824 0.681279 0.659529 -1.039080 0.546498 2.052531 21.043664 9.903698 -0.029029 -2.821295 10.460461 9.893446 -4.053653 4.415612 -2.176918 -28.958155 85.547505 76.936417 -38.903977 57.005817 8.771611 -12.426781 4.990744 -14.150041 -2.802208 -3.735464 2.453289 -11.444888 -86.582847 -13.341325 -7.822967 -80.405797 -7.025161 -12.418061 -12.133872 3.240373 13.318433 10.353315 0.011899 1.034489 0.760361 1.760435 -7.214954 -4.847829 0.022556 0.975230 0.014998 9.172854 -3.548957 9.981475 -3.441364 34.381473 0.606195 -1.742486 -21.858567 -3.127983 -0.055970 -0.535377 -0.032467
-3.046138 87.007417 -13.509080 -141.271200 -9.232257 -5.542763 0.998825 -1.794001 1.605516 0.664942 -1.039105 0.533111 0.829699 -1.299839 0.664528 0.664942 -1.039105 0.533111 2.088893 21.038171 9.749850 0.045440 -2.843763 10.272150 9.904050 -4.078937 4.412291 -2.166632 -28.951880 85.527245 76.930348 -38.907395 56.996798 8.772750 -12.425461 4.985385 -14.143088 -2.803768 -3.735984 2.447360 -11.449828 -86.584058 -13.342524 -7.837301 -80.415028 -7.021972 -12.421631 -12.124418 3.237523 13.307457 10.326576 0.014904 1.046948 0.752761 1.748564 -7.218360 -4.839081 0.022313 0.972388 0.015642 9.173947 -3.521032 9.948666 -3.432773 34.322837 0.609642 -1.733202 -21.844185 -3.125236 -0.055788 -0.532393 -0.030589
